<svg xmlns="http://www.w3.org/2000/svg" viewBox="0 0 640 360" width="100%" height="auto" preserveAspectRatio="xMidYMid meet" role="img" aria-label="Partial Filled Array"><rect x="0" y="0" width="640" height="360" fill="#ffffff"/><rect x="36" y="36" width="94.66666666666667" height="72" fill="#dbeafe" stroke="#111111" stroke-width="1"/><rect x="130.66666666666669" y="36" width="94.66666666666667" height="72" fill="#dbeafe" stroke="#111111" stroke-width="1"/><rect x="225.33333333333334" y="36" width="94.66666666666667" height="72" fill="#dbeafe" stroke="#111111" stroke-width="1"/><rect x="320" y="36" width="94.66666666666667" height="72" fill="#dbeafe" stroke="#111111" stroke-width="1"/><rect x="414.6666666666667" y="36" width="94.66666666666667" height="72" fill="#dbeafe" stroke="#111111" stroke-width="1"/><rect x="509.33333333333337" y="36" width="94.66666666666667" height="72" fill="#dbeafe" stroke="#111111" stroke-width="1"/><rect x="36" y="108" width="94.66666666666667" height="72" fill="#dbeafe" stroke="#111111" stroke-width="1"/><rect x="130.66666666666669" y="108" width="94.66666666666667" height="72" fill="#dbeafe" stroke="#111111" stroke-width="1"/><rect x="225.33333333333334" y="108" width="94.66666666666667" height="72" fill="#dbeafe" stroke="#111111" stroke-width="1"/><rect x="320" y="108" width="94.66666666666667" height="72" fill="#dbeafe" stroke="#111111" stroke-width="1"/><rect x="414.6666666666667" y="108" width="94.66666666666667" height="72" fill="#dbeafe" stroke="#111111" stroke-width="1"/><rect x="509.33333333333337" y="108" width="94.66666666666667" height="72" fill="#dbeafe" stroke="#111111" stroke-width="1"/><rect x="36" y="180" width="94.66666666666667" height="72" fill="#dbeafe" stroke="#111111" stroke-width="1"/><rect x="130.66666666666669" y="180" width="94.66666666666667" height="72" fill="#dbeafe" stroke="#111111" stroke-width="1"/><rect x="225.33333333333334" y="180" width="94.66666666666667" height="72" fill="#dbeafe" stroke="#111111" stroke-width="1"/><rect x="320" y="180" width="94.66666666666667" height="72" fill="#dbeafe" stroke="#111111" stroke-width="1"/><rect x="414.6666666666667" y="180" width="94.66666666666667" height="72" fill="#dbeafe" stroke="#111111" stroke-width="1"/><rect x="509.33333333333337" y="180" width="94.66666666666667" height="72" fill="#dbeafe" stroke="#111111" stroke-width="1"/><rect x="36" y="252" width="94.66666666666667" height="72" fill="#ffffff" stroke="#111111" stroke-width="1"/><rect x="130.66666666666669" y="252" width="94.66666666666667" height="72" fill="#ffffff" stroke="#111111" stroke-width="1"/><rect x="225.33333333333334" y="252" width="94.66666666666667" height="72" fill="#ffffff" stroke="#111111" stroke-width="1"/><rect x="320" y="252" width="94.66666666666667" height="72" fill="#ffffff" stroke="#111111" stroke-width="1"/><rect x="414.6666666666667" y="252" width="94.66666666666667" height="72" fill="#ffffff" stroke="#111111" stroke-width="1"/><rect x="509.33333333333337" y="252" width="94.66666666666667" height="72" fill="#ffffff" stroke="#111111" stroke-width="1"/><text x="320" y="350" font-size="14" text-anchor="middle" fill="#111111">4 rows × 6 columns</text></svg>