<svg width="360" height="400" xmlns="http://www.w3.org/2000/svg" viewBox="0 0 360 400">

        <defs>
            <style>
                .grid-line { stroke: #cccccc; stroke-width: 0.5; }
                .main-line { stroke: black; stroke-width: 2; fill: none; }
                .thin-line { stroke: black; stroke-width: 1; fill: none; }
                .label { font-family: Arial, sans-serif; font-size: 14px; }
                .label-small { font-family: Arial, sans-serif; font-size: 12px; }
                .shading { fill: #cccccc; }
                .angle-label { font-family: Arial, sans-serif; font-size: 11px; }
            </style>
        </defs>
        
<rect x="80" y="80" width="60" height="280" fill="none" stroke="black" stroke-width="2"/><line x1="80" y1="80" x2="140" y2="80" stroke="black" stroke-width="2" stroke-linecap="round"/><line x1="75" y1="360.0" x2="80" y2="360.0" stroke="black" stroke-width="1" stroke-linecap="round"/><line x1="75" y1="304.0" x2="80" y2="304.0" stroke="black" stroke-width="1" stroke-linecap="round"/><line x1="75" y1="248.0" x2="80" y2="248.0" stroke="black" stroke-width="1" stroke-linecap="round"/><line x1="75" y1="192.0" x2="80" y2="192.0" stroke="black" stroke-width="1" stroke-linecap="round"/><line x1="75" y1="136.0" x2="80" y2="136.0" stroke="black" stroke-width="1" stroke-linecap="round"/><line x1="75" y1="80.0" x2="80" y2="80.0" stroke="black" stroke-width="1" stroke-linecap="round"/><rect x="82" y="192.0" width="56" height="168.0" fill="#cccccc" stroke="none" stroke-width="2"/><text x="160" y="80" font-family="Arial, sans-serif" font-size="11" text-anchor="middle" fill="black">1000 ml</text><text x="110.0" y="380" font-family="Arial, sans-serif" font-size="12" text-anchor="middle" fill="black">Left</text><rect x="220" y="80" width="60" height="280" fill="none" stroke="black" stroke-width="2"/><line x1="220" y1="80" x2="280" y2="80" stroke="black" stroke-width="2" stroke-linecap="round"/><line x1="215" y1="360.0" x2="220" y2="360.0" stroke="black" stroke-width="1" stroke-linecap="round"/><line x1="215" y1="304.0" x2="220" y2="304.0" stroke="black" stroke-width="1" stroke-linecap="round"/><line x1="215" y1="248.0" x2="220" y2="248.0" stroke="black" stroke-width="1" stroke-linecap="round"/><line x1="215" y1="192.0" x2="220" y2="192.0" stroke="black" stroke-width="1" stroke-linecap="round"/><line x1="215" y1="136.0" x2="220" y2="136.0" stroke="black" stroke-width="1" stroke-linecap="round"/><line x1="215" y1="80.0" x2="220" y2="80.0" stroke="black" stroke-width="1" stroke-linecap="round"/><rect x="222" y="248.0" width="56" height="112.0" fill="#cccccc" stroke="none" stroke-width="2"/><text x="300" y="80" font-family="Arial, sans-serif" font-size="11" text-anchor="middle" fill="black">500 ml</text><text x="250.0" y="380" font-family="Arial, sans-serif" font-size="12" text-anchor="middle" fill="black">Right</text>
</svg>